PathFileType	4	(X/Y/Z)	S01_0015_Gait_markers.trc
DataRate	CameraRate	NumFrames	NumMarkers	Units	OrigDataRate	OrigDataStartFrame	OrigNumFrames
250.000000	250.000000	4	54	mm	250.000000	0	358
Frame#	Time	HEAD_ANT			R_HEAD			L_HEAD			C7			R_BACK			L_BACK			STERNUM			R_ACROMION			R_HUM_PROX			R_HUM_ANT			R_HUM_POST			R_ELBOW_LAT			R_ELBOW_MED			R_FOREARM			R_WIRST_LAT			R_WRITS_MED			R_HAND			L_ACROMION			L_HUM_PROX			L_HUM_ANT			L_HUM_POST			L_ELBOW_LAT			L_ELBOW_MED			L_FOREARM			L_WRIST_LAT			L_WIRST_MED			L_HAND			R_ILIAC			SACRUM			L_ILIAC			R_GTROCH			R_THIGH__1			R_THIGH_2			R_THIGH_3			R_THIGH_4			R_SHANK_1			R_SHANK_2			R_SHANK_3			R_SHANK_4			R_HEEL			R_FOOT_LAT			R_FOOT_MED			L_GTROCH			L_THIGH_1			L_THIGH_2			L_THIGH_3			L_THIGH_4			L_SHANK_1			L_SHANK_2			L_SHANK_3			L_SHANK_4			L_HEEL			L_FOOT_LAT			L_FOOT_MED			
		X1	Y1	Z1	X2	Y2	Z2	X3	Y3	Z3	X4	Y4	Z4	X5	Y5	Z5	X6	Y6	Z6	X7	Y7	Z7	X8	Y8	Z8	X9	Y9	Z9	X10	Y10	Z10	X11	Y11	Z11	X12	Y12	Z12	X13	Y13	Z13	X14	Y14	Z14	X15	Y15	Z15	X16	Y16	Z16	X17	Y17	Z17	X18	Y18	Z18	X19	Y19	Z19	X20	Y20	Z20	X21	Y21	Z21	X22	Y22	Z22	X23	Y23	Z23	X24	Y24	Z24	X25	Y25	Z25	X26	Y26	Z26	X27	Y27	Z27	X28	Y28	Z28	X29	Y29	Z29	X30	Y30	Z30	X31	Y31	Z31	X32	Y32	Z32	X33	Y33	Z33	X34	Y34	Z34	X35	Y35	Z35	X36	Y36	Z36	X37	Y37	Z37	X38	Y38	Z38	X39	Y39	Z39	X40	Y40	Z40	X41	Y41	Z41	X42	Y42	Z42	X43	Y43	Z43	X44	Y44	Z44	X45	Y45	Z45	X46	Y46	Z46	X47	Y47	Z47	X48	Y48	Z48	X49	Y49	Z49	X50	Y50	Z50	X51	Y51	Z51	X52	Y52	Z52	X53	Y53	Z53	X54	Y54	Z54	

1	0	82.8846435546875	1748.435180664062	-366.0045776367184	24.84474563598633	1704.256591796875	-284.6711425781246	24.1646671295166	1693.964477539062	-432.210784912109	-110.4273910522461	1528.391967773438	-352.0294494628903	-184.22802734375	1332.373168945312	-284.4814453124997	-176.4731750488281	1334.164672851562	-428.1734313964841	68.48020935058594	1369.1103515625	-336.7825012207028	-41.21540451049805	1484.067138671875	-173.1128997802731	-91.29550170898438	1324.368408203125	-82.34577941894501	-33.73683547973633	1236.857543945312	-73.91858673095676	-155.7024536132812	1243.270141601562	-76.20365905761692	-113.4791030883789	1136.453735351562	-65.52000427246068	-124.9914855957031	1132.00927734375	-145.4480895996091	-22.74335670471191	949.7882080078125	-49.24586486816385	17.66630363464355	881.89599609375	-85.46952819824199	-54.43256759643555	861.2333374023438	-54.25316619873028	11.62380981445312	794.9487915039062	-27.11955451965314	-22.59857940673828	1482.281860351563	-513.6442871093747	-34.25994491577148	1316.798706054688	-612.5269775390622	28.27025604248047	1236.455200195313	-604.6820678710935	-90.13997650146484	1238.966064453125	-642.0997314453123	-30.47133636474609	1135.572265625	-647.1347045898435	-87.2972412109375	1127.918334960938	-594.3319702148435	96.38797760009766	976.1826171875001	-606.894104003906	133.7106781005859	926.3849487304689	-549.318420410156	94.66898345947266	890.7460937500001	-609.9082031249998	180.0170440673828	853.5646972656251	-591.3643798828123	-43.66558074951172	1081.978271484375	-173.5848846435545	-167.5789031982422	1052.417358398438	-341.7125854492185	-42.7935791015625	1075.232666015625	-516.0145874023435	-75.52522277832031	929.2326049804688	-151.8157806396482	45.32014465332031	662.8233642578125	-172.1351165771483	94.91012573242188	693.8015747070312	-167.365753173828	128.2345581054688	596.30419921875	-199.9393005371092	64.57180023193359	583.8277587890625	-189.6283721923827	43.50070571899414	372.8100280761719	-184.8976745605468	96.43584442138672	346.1027526855469	-197.5964050292968	83.41119384765625	262.2359313964844	-213.7714080810546	20.69186401367188	275.4636840820313	-204.6552734374999	-35.2105827331543	65.34591674804695	-291.4325561523438	115.0888519287109	30.76571273803715	-193.9730987548828	174.3768768310547	42.76265716552741	-277.6889038085938	-84.70964050292969	961.5101318359376	-516.9553222656248	-31.11893653869629	667.4078369140626	-495.0276489257811	-81.19026184082031	693.2725219726564	-512.9014282226561	-106.7097396850586	597.7614135742189	-482.3923950195311	-45.82011413574219	590.6461181640626	-470.2854614257811	-133.5875244140625	329.2170410156251	-461.2199707031249	-194.2552032470703	318.066864013672	-465.9703674316406	-213.7677154541016	234.7084197998048	-447.4656372070312	-151.1158447265625	229.9400634765626	-434.5647583007812	-291.2085876464844	59.05690002441415	-374.8919982910156	-117.7844696044922	20.14042472839365	-442.2764892578125	-81.34123992919922	25.80554771423347	-334.5474243164062	
2	0.004	88.07472991943359	1747.795288085938	-365.2527160644527	30.19079971313477	1703.578735351562	-283.9920959472652	29.35374069213867	1693.440673828125	-431.7275390624996	-105.1125259399414	1527.705688476562	-351.8367309570309	-178.8686676025391	1331.694091796875	-284.4759216308591	-171.212158203125	1333.739379882812	-428.0971069335935	73.80229949951172	1368.247802734375	-336.5246887207028	-36.25148391723633	1483.318359375	-172.8919525146481	-86.73842620849609	1323.74951171875	-82.19209289550751	-29.35434532165527	1236.115478515625	-73.61562347412082	-151.3740081787109	1242.6142578125	-76.2284851074216	-109.132568359375	1135.735717773438	-65.61406707763646	-121.0624847412109	1131.545166015625	-145.7568359374997	-18.82820320129395	949.1842651367188	-48.95021438598611	21.74725341796875	881.2168579101562	-84.85877990722636	-50.54368591308594	860.5860595703125	-54.25117874145489	15.25382614135742	794.372802734375	-26.84475517272931	-17.10482025146484	1481.75634765625	-513.4056396484372	-27.95864295959473	1316.188598632813	-611.4174194335934	34.31884002685547	1236.045166015625	-604.2821655273435	-84.03504180908203	1238.388549804688	-642.278869628906	-23.90792655944824	1135.067138671875	-647.0439453124998	-81.2193603515625	1127.410766601563	-594.8400268554685	102.9655075073242	976.1677856445314	-606.3522338867185	141.1429595947266	926.8762817382814	-549.1204833984373	101.5776672363281	890.6969604492189	-609.4390869140623	186.8669586181641	853.7250976562501	-590.5598144531248	-38.64266586303711	1081.356811523438	-173.5373382568357	-162.5867767333984	1051.852294921875	-341.4069213867185	-38.07368469238281	1074.589233398438	-515.8166503906248	-70.17798614501953	928.5236206054688	-151.7944641113279	50.623779296875	662.1298217773438	-172.0905151367186	100.0783157348633	693.5072021484375	-167.1792602539061	133.6660766601562	595.69091796875	-200.1971130371092	70.14008331298828	583.62744140625	-190.7419281005858	52.53328323364258	371.3457031250001	-185.0760498046874	106.0547637939453	345.9104309082032	-197.6372528076171	94.89777374267578	261.7142639160157	-213.6999053955078	32.05115509033203	273.5619201660157	-204.8848419189453	-18.89821815490723	61.99686431884772	-291.198486328125	132.3514251708984	30.64288330078129	-193.8156890869141	191.2976684570312	43.45801925659186	-277.5082092285156	-80.29541015625	961.1787719726564	-516.718078613281	-28.47544860839844	667.0697021484376	-495.2410278320311	-78.65686798095703	693.1563720703126	-512.9332275390624	-104.4284133911133	597.8076782226564	-482.1645507812499	-43.80025100708008	590.4136352539064	-470.6488647460936	-132.5126190185547	329.2440185546876	-461.2288818359374	-193.3796691894531	318.6162719726564	-465.8879699707031	-212.9319305419922	235.132293701172	-447.2815856933593	-150.2615203857422	229.935775756836	-435.5037536621093	-291.1014099121094	59.67159271240243	-374.7517700195312	-117.7588272094727	20.09683609008799	-442.2492065429688	-81.343505859375	25.74275588989265	-334.4721984863281	
3	0.008	93.58943176269531	1747.19482421875	-364.4919433593746	35.60763931274414	1702.77001953125	-283.5688476562496	34.86400985717773	1692.951171875	-431.014251708984	-99.87673187255859	1527.002685546875	-351.6875610351559	-173.9090118408203	1330.98046875	-284.5762939453122	-166.0276794433594	1333.2021484375	-428.0540771484372	78.58139038085938	1367.70166015625	-336.2666015624997	-31.14593315124512	1482.606323242188	-172.6509094238278	-82.00271606445312	1322.95849609375	-82.03909301757783	-24.91885757446289	1235.249145507812	-73.53252410888645	-146.9640808105469	1242.0283203125	-76.29768371582004	-105.0562744140625	1135.028564453125	-65.65077209472631	-116.5443420410156	1130.875610351562	-145.7361755371091	-14.87137508392334	948.3057250976562	-48.89439010620096	25.84049797058105	880.6070556640625	-84.3488769531248	-46.61806869506836	859.7326049804688	-54.21728134155254	19.3142204284668	793.6521606445312	-26.33254814147931	-11.46999454498291	1481.161010742188	-513.0574340820309	-22.08877182006836	1315.623046875	-611.4956665039059	40.2921257019043	1235.576538085938	-604.0336914062498	-78.01493072509766	1237.952514648438	-642.6491088867185	-17.7790355682373	1134.668090820313	-647.2517089843748	-75.11526489257812	1126.720458984375	-595.0895385742185	109.4197082519531	976.0722045898439	-606.0236816406248	147.5451202392578	926.9227294921876	-548.5131835937498	108.417594909668	890.6318969726564	-608.9423217773435	193.7542877197266	854.0291137695314	-589.612854003906	-33.50703048706055	1080.460693359375	-173.4556884765623	-157.4101715087891	1051.238891601562	-341.0657653808591	-33.74856185913086	1073.94140625	-515.7376708984373	-65.06110382080078	927.9142456054688	-151.7709045410154	55.74731063842773	661.6323852539062	-172.2026214599608	105.4108123779297	692.8978271484375	-167.7687988281249	138.9512939453125	595.352783203125	-200.3722076416014	75.49040222167969	583.1424560546875	-190.7643890380858	61.33666229248047	369.9472656250001	-185.4852600097655	115.6607818603516	345.6103515625001	-197.6847229003905	106.5891647338867	261.2934265136719	-213.5004119873046	43.16529083251953	271.7748107910157	-205.1146087646484	-2.479066371917725	58.7183799743653	-290.94775390625	149.3952026367188	30.53417205810551	-193.2162017822266	208.2525939941406	44.42158508300788	-277.4089050292969	-75.66813659667969	960.6562500000001	-516.4969482421873	-25.62515449523926	667.0819091796876	-495.4616394042967	-75.80438995361328	693.4360961914064	-513.0612182617186	-102.2567291259766	597.9151611328126	-482.2446899414061	-41.47974395751953	590.3053588867189	-471.2420349121093	-131.6515350341797	329.4258117675782	-461.2706909179687	-192.2004699707031	318.9111328125001	-465.6582946777343	-212.4120330810547	235.4608001708985	-447.2243041992187	-149.6281890869141	230.1271209716798	-435.5739135742187	-290.9973754882812	60.33168792724618	-374.6614379882812	-117.8487854003906	20.09037590026865	-442.1804809570312	-81.30458068847656	25.76310920715339	-334.5431213378906	
4	0.012	98.82994842529297	1746.458374023438	-363.9721069335934	40.89533233642578	1701.845336914062	-282.8815612792965	40.48252868652344	1692.344848632812	-430.3644104003902	-94.46953582763672	1526.352294921875	-351.5093383789059	-168.6889343261719	1330.281127929688	-284.7226257324216	-160.8194427490234	1332.595703125	-427.9289855957028	84.09372711181641	1366.403442382812	-335.9308471679685	-26.03551864624023	1481.760375976562	-172.3842010498043	-77.51683044433594	1322.19873046875	-82.13627624511689	-20.53765296936035	1234.435302734375	-73.22467041015598	-142.4996185302734	1241.474853515625	-76.57587432861301	-100.8474197387695	1134.347534179688	-65.72679138183568	-111.8675155639648	1130.055053710938	-145.8151702880857	-10.78241157531738	947.5579223632812	-48.47183990478494	29.81380462646484	879.7021484375	-82.47644805908183	-42.69341659545898	858.9088745117188	-54.59060668945293	23.07549667358398	792.9031982421875	-26.08354949951154	-5.904665946960449	1480.493286132813	-512.8311157226559	-16.4771556854248	1315.277954101563	-612.1664428710934	46.12064361572266	1235.09033203125	-603.7744140624998	-71.86064910888672	1237.357177734375	-642.6464843749998	-10.77106285095215	1134.157470703125	-647.2178955078123	-69.00200653076172	1126.0888671875	-595.493957519531	116.0138778686523	975.8462524414064	-605.4659423828123	153.9138336181641	926.9514770507814	-547.7954101562498	115.2341079711914	890.5249023437501	-608.5196533203123	200.5900268554688	854.2031860351564	-588.807189941406	-28.11775588989258	1079.766479492188	-173.1394195556638	-152.4930419921875	1050.702270507812	-340.8206787109373	-28.92111206054688	1073.168334960938	-515.820861816406	-59.65034103393555	926.9983520507812	-151.8745727539061	60.8883056640625	660.9302978515625	-172.5904846191405	110.4630355834961	692.220703125	-167.7982635498045	144.0575866699219	594.8643188476562	-200.9602203369139	80.42284393310547	582.1746826171875	-190.3810729980467	70.14617919921875	368.5836181640626	-185.8964233398437	124.992301940918	345.5926513671876	-197.6087951660155	118.0325546264648	260.8301391601563	-213.4102325439453	54.38101959228516	269.7513732910157	-205.315444946289	14.02109146118164	55.82084655761725	-290.8529357910156	166.5009155273438	30.60752296447758	-193.1427764892578	224.8872528076172	45.42262268066413	-277.3987731933594	-71.28634643554688	960.0993652343751	-516.2874755859373	-23.2358570098877	666.1582641601564	-495.6322937011717	-72.99703216552734	692.9319458007814	-512.8699951171874	-100.3606185913086	597.6954956054689	-481.5929870605468	-39.36631774902344	589.4774169921876	-471.2661132812499	-130.6599273681641	329.5113830566407	-461.2221069335937	-191.212158203125	319.1223754882814	-465.6840820312499	-211.8182220458984	235.6566925048829	-446.9257202148437	-147.7593231201172	230.6590423583985	-435.2696838378906	-290.8610534667969	61.00048446655282	-374.5658874511719	-117.9765701293945	20.13473320007334	-442.1294555664062	-81.24271392822266	25.75869560241707	-334.5924377441406	
